<?xml version="1.0" encoding="UTF-8"?>
<svg width="764px" height="560px" viewBox="0 0 764 560" version="1.1" xmlns="http://www.w3.org/2000/svg" xmlns:xlink="http://www.w3.org/1999/xlink">
    <!-- Generator: Sketch 60.1 (88133) - https://sketch.com -->
    <title>solution-wordpress-hero-1</title>
    <desc>Created with Sketch.</desc>
    <defs>
        <polygon id="path-1" points="0.7254 0.007 20.7624 0.007 20.7624 22.3424 0.7254 22.3424"></polygon>
        <polygon id="path-3" points="0 559.993 763.104 559.993 763.104 1 0 1"></polygon>
    </defs>
    <g id="solution-wordpress-hero-1" stroke="none" stroke-width="1" fill="none" fill-rule="evenodd">
        <g id="Group-144">
            <path d="M658.9825,92.1678 C658.9825,86.6358 654.4975,82.1498 648.9645,82.1498 C643.4315,82.1498 638.9465,86.6358 638.9465,92.1678 L638.9465,94.4618 L638.9465,94.4618 C638.9465,94.4638 638.9465,94.4658 638.9465,94.4678 C638.9465,99.9998 643.4315,104.4848 648.9645,104.4848 C654.4975,104.4848 658.9825,99.9998 658.9825,94.4678 L658.9825,94.4618 L658.9825,92.1678 Z" id="Fill-1" fill="#0B1A42"></path>
            <path d="M669.6456,119.3465 C669.7166,117.1905 669.3186,114.8355 668.3826,112.5755 C665.5286,105.6785 658.9156,103.3075 658.2346,103.9715 C658.2346,103.9715 654.7076,107.7545 648.9646,107.7545 C645.3596,107.7545 642.0886,106.3105 639.6946,103.9715 C639.0146,103.3075 632.3996,105.6785 629.5456,112.5755 C628.6096,114.8355 628.2126,117.1905 628.2836,119.3465 C641.7796,123.3575 656.1496,123.3575 669.6456,119.3465" id="Fill-3" fill="#0B1A42"></path>
            <path d="M638.2936,159.0086 C638.2936,153.4756 633.8086,148.9896 628.2756,148.9896 C622.7426,148.9896 618.2576,153.4756 618.2576,159.0086 L618.2576,161.3016 L618.2576,161.3016 C618.2576,161.3036 618.2576,161.3056 618.2576,161.3076 C618.2576,166.8406 622.7426,171.3246 628.2756,171.3246 C633.8086,171.3246 638.2936,166.8406 638.2936,161.3076 L638.2936,161.3016 L638.2936,159.0086 Z" id="Fill-5" fill="#0B1A42"></path>
            <path d="M648.9567,186.1864 C649.0277,184.0304 648.6297,181.6764 647.6937,179.4154 C644.8397,172.5184 638.2267,170.1474 637.5457,170.8114 C637.5457,170.8114 634.0187,174.5954 628.2757,174.5954 C624.6707,174.5954 621.3997,173.1504 619.0057,170.8114 C618.3257,170.1474 611.7107,172.5184 608.8567,179.4154 C607.9217,181.6764 607.5237,184.0304 607.5947,186.1864 C621.0907,190.1984 635.4607,190.1984 648.9567,186.1864" id="Fill-7" fill="#0B1A42"></path>
            <path d="M434.0392,38.6473 C434.0392,33.1143 429.5542,28.6283 424.0202,28.6283 C418.4882,28.6283 414.0022,33.1143 414.0022,38.6473 L414.0022,40.9403 L414.0032,40.9403 C414.0032,40.9423 414.0022,40.9443 414.0022,40.9463 C414.0022,46.4793 418.4882,50.9643 424.0202,50.9643 C429.5542,50.9643 434.0392,46.4793 434.0392,40.9463 C434.0392,40.9443 434.0392,40.9423 434.0392,40.9403 L434.0392,40.9403 L434.0392,38.6473 Z" id="Fill-9" fill="#0B1A42"></path>
            <path d="M444.7018,65.826 C444.7728,63.669 444.3748,61.315 443.4388,59.054 C440.5848,52.157 433.9718,49.786 433.2908,50.45 C433.2908,50.45 429.7648,54.234 424.0208,54.234 C420.4158,54.234 417.1458,52.79 414.7508,50.45 C414.0708,49.786 407.4568,52.157 404.6028,59.054 C403.6668,61.315 403.2688,63.669 403.3398,65.826 C416.8358,69.837 431.2058,69.837 444.7018,65.826" id="Fill-11" fill="#0B1A42"></path>
            <g id="Group-15" transform="translate(278.000000, 0.993000)">
                <mask id="mask-2" fill="white">
                    <use xlink:href="#path-1"></use>
                </mask>
                <g id="Clip-14"></g>
                <path d="M20.7624,10.0254 C20.7624,4.4924 16.2774,0.0064 10.7444,0.0064 C5.2114,0.0064 0.7254,4.4924 0.7254,10.0254 L0.7254,12.3184 L0.7264,12.3184 C0.7264,12.3204 0.7254,12.3224 0.7254,12.3244 C0.7254,17.8574 5.2114,22.3424 10.7444,22.3424 C16.2774,22.3424 20.7624,17.8574 20.7624,12.3244 C20.7624,12.3224 20.7624,12.3204 20.7624,12.3184 L20.7624,12.3184 L20.7624,10.0254 Z" id="Fill-13" fill="#0B1A42" mask="url(#mask-2)"></path>
            </g>
            <path d="M309.425,38.1971 C309.496,36.0411 309.098,33.6861 308.162,31.4251 C305.308,24.5281 298.695,22.1581 298.014,22.8221 C298.014,22.8221 294.488,26.6051 288.744,26.6051 C285.139,26.6051 281.869,25.1611 279.474,22.8221 C278.794,22.1581 272.18,24.5281 269.326,31.4251 C268.39,33.6861 267.992,36.0411 268.063,38.1971 C281.559,42.2081 295.929,42.2081 309.425,38.1971" id="Fill-16" fill="#0B1A42"></path>
            <path d="M202.9562,463.6737 C202.9562,458.1417 198.4712,453.6557 192.9382,453.6557 C187.4052,453.6557 182.9202,458.1417 182.9202,463.6737 L182.9202,465.9667 L182.9202,465.9737 C182.9202,471.5057 187.4052,475.9907 192.9382,475.9907 C198.4712,475.9907 202.9562,471.5057 202.9562,465.9737 C202.9562,465.9717 202.9562,465.9697 202.9562,465.9667 L202.9562,465.9667 L202.9562,463.6737 Z" id="Fill-18" fill="#0B1A42"></path>
            <path d="M213.6188,490.8524 C213.6898,488.6964 213.2918,486.3414 212.3558,484.0804 C209.5018,477.1844 202.8888,474.8134 202.2078,475.4774 C202.2078,475.4774 198.6818,479.2604 192.9378,479.2604 C189.3338,479.2604 186.0628,477.8164 183.6678,475.4774 C182.9878,474.8134 176.3738,477.1844 173.5198,484.0804 C172.5838,486.3414 172.1858,488.6964 172.2568,490.8524 C185.7528,494.8634 200.1228,494.8634 213.6188,490.8524" id="Fill-20" fill="#0B1A42"></path>
            <path d="M161.6871,517.8309 C161.6871,512.2989 157.2021,507.8129 151.6691,507.8129 C146.1361,507.8129 141.6511,512.2989 141.6511,517.8309 L141.6511,520.1239 L141.6511,520.1309 C141.6511,525.6629 146.1361,530.1479 151.6691,530.1479 C157.2021,530.1479 161.6871,525.6629 161.6871,520.1309 C161.6871,520.1279 161.6871,520.1259 161.6871,520.1239 L161.6871,520.1239 L161.6871,517.8309 Z" id="Fill-22" fill="#0B1A42"></path>
            <path d="M172.3497,545.0096 C172.4207,542.8536 172.0227,540.4986 171.0877,538.2376 C168.2337,531.3406 161.6197,528.9706 160.9387,529.6346 C160.9387,529.6346 157.4127,533.4176 151.6687,533.4176 C148.0647,533.4176 144.7937,531.9736 142.3987,529.6346 C141.7187,528.9706 135.1047,531.3406 132.2507,538.2376 C131.3147,540.4986 130.9167,542.8536 130.9877,545.0096 C144.4837,549.0206 158.8537,549.0206 172.3497,545.0096" id="Fill-24" fill="#0B1A42"></path>
            <path d="M308.7804,488.7938 C308.7804,483.2608 304.2954,478.7748 298.7624,478.7748 C293.2294,478.7748 288.7444,483.2608 288.7444,488.7938 L288.7444,491.0868 L288.7444,491.0928 C288.7444,496.6258 293.2294,501.1108 298.7624,501.1108 C304.2954,501.1108 308.7804,496.6258 308.7804,491.0928 C308.7804,491.0908 308.7804,491.0888 308.7804,491.0868 L308.7804,491.0868 L308.7804,488.7938 Z" id="Fill-26" fill="#0B1A42"></path>
            <path d="M319.443,515.9725 C319.514,513.8165 319.116,511.4615 318.18,509.2005 C315.326,502.3035 308.713,499.9335 308.032,500.5975 C308.032,500.5975 304.506,504.3805 298.762,504.3805 C295.158,504.3805 291.887,502.9365 289.492,500.5975 C288.812,499.9335 282.198,502.3035 279.344,509.2005 C278.408,511.4615 278.01,513.8165 278.081,515.9725 C291.577,519.9835 305.947,519.9835 319.443,515.9725" id="Fill-28" fill="#0B1A42"></path>
            <path d="M284.9665,72.0653 C284.9665,66.5333 280.4815,62.0473 274.9485,62.0473 C269.4155,62.0473 264.9305,66.5333 264.9305,72.0653 L264.9305,74.3593 L264.9305,74.3593 C264.9305,74.3613 264.9305,74.3633 264.9305,74.3653 C264.9305,79.8983 269.4155,84.3823 274.9485,84.3823 C280.4815,84.3823 284.9665,79.8983 284.9665,74.3653 C284.9665,74.3633 284.9665,74.3613 284.9665,74.3593 L284.9665,74.3593 L284.9665,72.0653 Z" id="Fill-30" fill="#0B1A42"></path>
            <path d="M295.6291,99.244 C295.7001,97.088 295.3031,94.734 294.3671,92.473 C291.5131,85.576 284.8991,83.205 284.2191,83.869 C284.2191,83.869 280.6921,87.653 274.9481,87.653 C271.3441,87.653 268.0731,86.208 265.6781,83.869 C264.9981,83.205 258.3841,85.576 255.5301,92.473 C254.5941,94.734 254.1961,97.088 254.2671,99.244 L254.2681,99.244 C267.7631,103.256 282.1341,103.256 295.6291,99.244" id="Fill-32" fill="#0B1A42"></path>
            <path d="M708.1505,79.6209 C708.1505,74.0879 703.6655,69.6019 698.1325,69.6019 C692.5995,69.6019 688.1145,74.0879 688.1145,79.6209 L688.1145,81.9139 L688.1145,81.9139 C688.1145,81.9159 688.1145,81.9179 688.1145,81.9199 C688.1145,87.4529 692.5995,91.9379 698.1325,91.9379 C703.6655,91.9379 708.1505,87.4529 708.1505,81.9199 L708.1505,81.9139 L708.1505,79.6209 Z" id="Fill-34" fill="#0B1A42"></path>
            <path d="M718.8136,106.7996 C718.8846,104.6426 718.4866,102.2886 717.5506,100.0276 C714.6966,93.1306 708.0836,90.7596 707.4026,91.4246 C707.4026,91.4246 703.8756,95.2076 698.1326,95.2076 C694.5276,95.2076 691.2566,93.7636 688.8626,91.4246 C688.1826,90.7596 681.5676,93.1306 678.7136,100.0276 C677.7776,102.2886 677.3806,104.6426 677.4516,106.7996 C690.9476,110.8106 705.3176,110.8106 718.8136,106.7996" id="Fill-36" fill="#0B1A42"></path>
            <path d="M727.525,155.1405 C727.525,149.6075 723.04,145.1215 717.507,145.1215 C711.974,145.1215 707.489,149.6075 707.489,155.1405 L707.489,157.4335 L707.489,157.4395 C707.489,162.9725 711.974,167.4575 717.507,167.4575 C723.04,167.4575 727.525,162.9725 727.525,157.4395 C727.525,157.4375 727.525,157.4355 727.525,157.4335 L727.525,157.4335 L727.525,155.1405 Z" id="Fill-38" fill="#0B1A42"></path>
            <path d="M738.1876,182.3192 C738.2586,180.1622 737.8606,177.8082 736.9256,175.5472 C734.0716,168.6502 727.4576,166.2792 726.7766,166.9442 C726.7766,166.9442 723.2506,170.7272 717.5066,170.7272 C713.9026,170.7272 710.6316,169.2832 708.2366,166.9442 C707.5566,166.2792 700.9426,168.6502 698.0886,175.5472 C697.1526,177.8082 696.7546,180.1622 696.8256,182.3192 C710.3216,186.3302 724.6916,186.3302 738.1876,182.3192" id="Fill-40" fill="#0B1A42"></path>
            <path d="M608.8419,238.0838 C608.8419,232.5508 604.3569,228.0648 598.8239,228.0648 C593.2909,228.0648 588.8059,232.5508 588.8059,238.0838 L588.8059,240.3768 L588.8059,240.3828 C588.8059,245.9158 593.2909,250.4008 598.8239,250.4008 C604.3569,250.4008 608.8419,245.9158 608.8419,240.3828 C608.8419,240.3808 608.8419,240.3788 608.8419,240.3768 L608.8419,240.3768 L608.8419,238.0838 Z" id="Fill-42" fill="#0B1A42"></path>
            <path d="M619.5045,265.2625 C619.5755,263.1065 619.1775,260.7515 618.2415,258.4905 C615.3875,251.5935 608.7745,249.2235 608.0935,249.8875 C608.0935,249.8875 604.5675,253.6705 598.8235,253.6705 C595.2195,253.6705 591.9485,252.2265 589.5535,249.8875 C588.8735,249.2235 582.2595,251.5935 579.4055,258.4905 C578.4695,260.7515 578.0715,263.1065 578.1425,265.2625" id="Fill-44" fill="#0B1A42"></path>
            <path d="M638.2936,327.0213 C638.2936,321.4893 633.8086,317.0033 628.2756,317.0033 C622.7426,317.0033 618.2576,321.4893 618.2576,327.0213 L618.2576,329.3143 L618.2576,329.3143 C618.2576,329.3173 618.2576,329.3193 618.2576,329.3213 C618.2576,334.8533 622.7426,339.3383 628.2756,339.3383 C633.8086,339.3383 638.2936,334.8533 638.2936,329.3213 L638.2936,329.3143 L638.2936,327.0213 Z" id="Fill-46" fill="#0B1A42"></path>
            <path d="M648.9567,354.2 C649.0277,352.044 648.6297,349.689 647.6937,347.428 C644.8397,340.532 638.2267,338.161 637.5457,338.825 C637.5457,338.825 634.0187,342.608 628.2757,342.608 C624.6707,342.608 621.3997,341.164 619.0057,338.825 C618.3257,338.161 611.7107,340.532 608.8567,347.428 C607.9217,349.689 607.5237,352.044 607.5947,354.2" id="Fill-48" fill="#0B1A42"></path>
            <path d="M676.0905,146.6219 C675.9765,146.6219 675.8615,146.6089 675.7455,146.5819 L315.5725,61.9129 C314.7655,61.7239 314.2655,60.9159 314.4555,60.1099 C314.6455,59.3039 315.4565,58.8019 316.2585,58.9929 L676.4325,143.6619 C677.2385,143.8509 677.7385,144.6589 677.5485,145.4659 C677.3865,146.1559 676.7705,146.6219 676.0905,146.6219" id="Fill-50" fill="#0B1A42"></path>
            <path d="M632.5519,285.2225 C632.4029,285.2225 632.2519,285.2015 632.1019,285.1535 C631.3119,284.9055 630.8719,284.0635 631.1199,283.2735 L674.6579,144.6725 C674.9059,143.8825 675.7469,143.4405 676.5389,143.6915 C677.3289,143.9395 677.7679,144.7815 677.5199,145.5715 L633.9829,284.1715 C633.7809,284.8125 633.1899,285.2225 632.5519,285.2225" id="Fill-52" fill="#0B1A42"></path>
            <path d="M215.4918,517.9657 C214.9658,517.9657 214.4548,517.6887 214.1798,517.1967 C213.7768,516.4737 214.0358,515.5597 214.7598,515.1557 L631.8208,282.4127 C632.5448,282.0087 633.4568,282.2687 633.8618,282.9907 C634.2648,283.7147 634.0058,284.6287 633.2828,285.0317 L216.2208,517.7757 C215.9898,517.9037 215.7388,517.9657 215.4918,517.9657" id="Fill-54" fill="#0B1A42"></path>
            <path d="M215.4918,517.9657 C215.3848,517.9657 215.2768,517.9547 215.1678,517.9307 C214.3588,517.7527 213.8468,516.9517 214.0258,516.1437 L314.4508,60.1307 C314.6288,59.3197 315.4268,58.8057 316.2388,58.9877 C317.0478,59.1657 317.5588,59.9667 317.3808,60.7757 L216.9548,516.7877 C216.8008,517.4887 216.1808,517.9657 215.4918,517.9657" id="Fill-56" fill="#0B1A42"></path>
            <path d="M531.755,123.8553 L100.076,123.8553 C94.476,123.8553 89.936,128.3953 89.936,133.9953 L89.936,420.9113 C89.936,426.5113 94.476,431.0513 100.076,431.0513 L531.755,431.0513 C537.355,431.0513 541.895,426.5113 541.895,420.9113 L541.895,133.9953 C541.895,128.3953 537.355,123.8553 531.755,123.8553" id="Fill-58" fill="#1F4EC2"></path>
            <path d="M100.0763,126.3553 C95.8633,126.3553 92.4363,129.7823 92.4363,133.9953 L92.4363,420.9113 C92.4363,425.1243 95.8633,428.5513 100.0763,428.5513 L531.7553,428.5513 C535.9683,428.5513 539.3953,425.1243 539.3953,420.9113 L539.3953,133.9953 C539.3953,129.7823 535.9683,126.3553 531.7553,126.3553 L100.0763,126.3553 Z M531.7553,433.5513 L100.0763,433.5513 C93.1063,433.5513 87.4363,427.8803 87.4363,420.9113 L87.4363,133.9953 C87.4363,127.0253 93.1063,121.3553 100.0763,121.3553 L531.7553,121.3553 C538.7243,121.3553 544.3953,127.0253 544.3953,133.9953 L544.3953,420.9113 C544.3953,427.8803 538.7243,433.5513 531.7553,433.5513 L531.7553,433.5513 Z" id="Fill-60" fill="#FFFFFF"></path>
            <path d="M541.8951,146.1219 L89.9361,146.1219 C89.3841,146.1219 88.9361,145.6749 88.9361,145.1219 C88.9361,144.5689 89.3841,144.1219 89.9361,144.1219 L541.8951,144.1219 C542.4471,144.1219 542.8951,144.5689 542.8951,145.1219 C542.8951,145.6749 542.4471,146.1219 541.8951,146.1219" id="Fill-62" fill="#FFFFFF"></path>
            <path d="M449.2111,181.6151 L424.6331,181.6151 C415.0831,181.6151 407.3411,189.3561 407.3411,198.9071 C407.3411,208.4571 415.0831,216.1981 424.6331,216.1981 L449.2111,216.1981 C458.7611,216.1981 466.5031,208.4571 466.5031,198.9071 C466.5031,189.3561 458.7611,181.6151 449.2111,181.6151" id="Fill-64" fill="#0B1A42"></path>
            <path d="M461.0963,198.9071 C461.0963,192.3101 455.7483,186.9631 449.1523,186.9631 C442.5553,186.9631 437.2073,192.3101 437.2073,198.9071 C437.2073,205.5041 442.5553,210.8501 449.1523,210.8501 C455.7483,210.8501 461.0963,205.5041 461.0963,198.9071" id="Fill-66" fill="#1F4EC2"></path>
            <line x1="466.5031" y1="198.9071" x2="540.0061" y2="198.9071" id="Fill-68" fill="#1F4EC2"></line>
            <path d="M540.0065,200.4071 L466.5035,200.4071 C465.6745,200.4071 465.0035,199.7351 465.0035,198.9071 C465.0035,198.0791 465.6745,197.4071 466.5035,197.4071 L540.0065,197.4071 C540.8355,197.4071 541.5065,198.0791 541.5065,198.9071 C541.5065,199.7351 540.8355,200.4071 540.0065,200.4071" id="Fill-70" fill="#0B1A42"></path>
            <path d="M449.2111,241.3162 L424.6331,241.3162 C415.0831,241.3162 407.3411,249.0582 407.3411,258.6082 C407.3411,268.1582 415.0831,275.9002 424.6331,275.9002 L449.2111,275.9002 C458.7611,275.9002 466.5031,268.1582 466.5031,258.6082 C466.5031,249.0582 458.7611,241.3162 449.2111,241.3162" id="Fill-72" fill="#0B1A42"></path>
            <path d="M461.0963,258.6082 C461.0963,252.0112 455.7483,246.6642 449.1523,246.6642 C442.5553,246.6642 437.2073,252.0112 437.2073,258.6082 C437.2073,265.2052 442.5553,270.5522 449.1523,270.5522 C455.7483,270.5522 461.0963,265.2052 461.0963,258.6082" id="Fill-74" fill="#1F4EC2"></path>
            <line x1="466.5031" y1="258.6082" x2="540.0061" y2="258.6082" id="Fill-76" fill="#1F4EC2"></line>
            <path d="M540.0065,260.1082 L466.5035,260.1082 C465.6745,260.1082 465.0035,259.4362 465.0035,258.6082 C465.0035,257.7802 465.6745,257.1082 466.5035,257.1082 L540.0065,257.1082 C540.8355,257.1082 541.5065,257.7802 541.5065,258.6082 C541.5065,259.4362 540.8355,260.1082 540.0065,260.1082" id="Fill-78" fill="#0B1A42"></path>
            <path d="M449.2111,301.0184 L424.6331,301.0184 C415.0831,301.0184 407.3411,308.7594 407.3411,318.3094 L407.3411,318.3104 C407.3411,327.8604 415.0831,335.6014 424.6331,335.6014 L449.2111,335.6014 C458.7611,335.6014 466.5031,327.8604 466.5031,318.3104 L466.5031,318.3094 C466.5031,308.7594 458.7611,301.0184 449.2111,301.0184" id="Fill-80" fill="#0B1A42"></path>
            <path d="M461.0963,318.3104 C461.0963,311.7134 455.7483,306.3664 449.1523,306.3664 C442.5553,306.3664 437.2073,311.7134 437.2073,318.3104 C437.2073,324.9064 442.5553,330.2534 449.1523,330.2534 C455.7483,330.2534 461.0963,324.9064 461.0963,318.3104" id="Fill-82" fill="#1F4EC2"></path>
            <line x1="466.5031" y1="318.3104" x2="540.0061" y2="318.3104" id="Fill-84" fill="#1F4EC2"></line>
            <path d="M540.0065,319.8104 L466.5035,319.8104 C465.6745,319.8104 465.0035,319.1384 465.0035,318.3104 C465.0035,317.4824 465.6745,316.8104 466.5035,316.8104 L540.0065,316.8104 C540.8355,316.8104 541.5065,317.4824 541.5065,318.3104 C541.5065,319.1384 540.8355,319.8104 540.0065,319.8104" id="Fill-86" fill="#0B1A42"></path>
            <path d="M449.2111,360.7196 L424.6331,360.7196 C415.0831,360.7196 407.3411,368.4616 407.3411,378.0116 C407.3411,387.5616 415.0831,395.3036 424.6331,395.3036 L449.2111,395.3036 C458.7611,395.3036 466.5031,387.5616 466.5031,378.0116 C466.5031,368.4616 458.7611,360.7196 449.2111,360.7196" id="Fill-88" fill="#0B1A42"></path>
            <path d="M461.0963,378.0116 C461.0963,371.4146 455.7483,366.0676 449.1523,366.0676 C442.5553,366.0676 437.2073,371.4146 437.2073,378.0116 C437.2073,384.6086 442.5553,389.9556 449.1523,389.9556 C455.7483,389.9556 461.0963,384.6086 461.0963,378.0116" id="Fill-90" fill="#1F4EC2"></path>
            <line x1="466.5031" y1="378.0116" x2="540.0061" y2="378.0116" id="Fill-92" fill="#1F4EC2"></line>
            <path d="M540.0065,379.5116 L466.5035,379.5116 C465.6745,379.5116 465.0035,378.8396 465.0035,378.0116 C465.0035,377.1836 465.6745,376.5116 466.5035,376.5116 L540.0065,376.5116 C540.8355,376.5116 541.5065,377.1836 541.5065,378.0116 C541.5065,378.8396 540.8355,379.5116 540.0065,379.5116" id="Fill-94" fill="#0B1A42"></path>
            <path d="M137.3087,432.0516 C136.7567,432.0516 136.3087,431.6046 136.3087,431.0516 L136.3087,145.8666 C136.3087,145.3146 136.7567,144.8666 137.3087,144.8666 C137.8607,144.8666 138.3087,145.3146 138.3087,145.8666 L138.3087,431.0516 C138.3087,431.6046 137.8607,432.0516 137.3087,432.0516" id="Fill-96" fill="#FFFFFF"></path>
            <path d="M252.0128,349.6053 C252.0128,374.8433 231.5528,395.3033 206.3148,395.3033 C181.0758,395.3033 160.6168,374.8433 160.6168,349.6053 C160.6168,324.3673 181.0758,303.9073 206.3148,303.9073 C231.5528,303.9073 252.0128,324.3673 252.0128,349.6053" id="Fill-98" fill="#0B1A42"></path>
            <path d="M371.1691,227.3133 C371.1691,252.5513 350.7091,273.0113 325.4711,273.0113 C300.2321,273.0113 279.7731,252.5513 279.7731,227.3133 C279.7731,202.0753 300.2321,181.6153 325.4711,181.6153 C350.7091,181.6153 371.1691,202.0753 371.1691,227.3133" id="Fill-100" fill="#0B1A42"></path>
            <path d="M371.1691,349.6053 C371.1691,374.8433 350.7091,395.3033 325.4711,395.3033 C300.2321,395.3033 279.7731,374.8433 279.7731,349.6053 C279.7731,324.3673 300.2321,303.9073 325.4711,303.9073 C350.7091,303.9073 371.1691,324.3673 371.1691,349.6053" id="Fill-102" fill="#0B1A42"></path>
            <path d="M252.0128,227.3133 C252.0128,252.5513 231.5528,273.0113 206.3148,273.0113 C181.0758,273.0113 160.6168,252.5513 160.6168,227.3133 C160.6168,202.0753 181.0758,181.6153 206.3148,181.6153 C231.5528,181.6153 252.0128,202.0753 252.0128,227.3133" id="Fill-104" fill="#0B1A42"></path>
            <path d="M215.2843,198.0868 C214.5863,198.0868 213.9373,198.3718 213.4573,198.8898 L186.1973,228.3338 C185.5103,229.0748 185.3273,230.1528 185.7323,231.0798 C186.1373,232.0068 187.0523,232.6048 188.0633,232.6048 L199.3163,232.6048 L193.5393,253.3688 C193.3273,254.1298 193.4773,254.9228 193.9513,255.5458 C194.4233,256.1678 195.1723,256.5398 195.9523,256.5398 C196.6563,256.5398 197.3313,256.2358 197.8063,255.7058 L226.4603,223.7288 C227.1283,222.9828 227.2963,221.9088 226.8883,220.9938 C226.4793,220.0788 225.5683,219.4878 224.5663,219.4878 L211.9863,219.4878 L217.6743,201.3348 C217.9153,200.5678 217.7833,199.7578 217.3103,199.1138 C216.8383,198.4708 216.0803,198.0868 215.2843,198.0868 M215.2843,200.0868 C215.5903,200.0868 215.8783,200.3778 215.7653,200.7368 L209.2643,221.4878 L224.5663,221.4878 C225.0353,221.4878 225.2843,222.0438 224.9713,222.3938 L196.3173,254.3708 C196.2123,254.4888 196.0803,254.5398 195.9523,254.5398 C195.6523,254.5398 195.3673,254.2608 195.4663,253.9048 L201.9483,230.6048 L188.0633,230.6048 C187.5893,230.6048 187.3423,230.0398 187.6643,229.6918 L214.9243,200.2488 C215.0303,200.1358 215.1583,200.0868 215.2843,200.0868" id="Fill-106" fill="#FFFFFF"></path>
            <path d="M306.9328,206.3172 L306.9328,233.5072 C306.9188,233.9702 306.8248,244.0562 325.1178,248.9602 C325.3418,249.0192 325.5998,249.0172 325.8238,248.9602 C344.1178,244.0562 344.0228,233.9702 344.0098,233.5442 L344.0088,206.3172 C338.1338,209.2472 331.2208,209.0692 325.4708,205.7832 C319.7208,209.0692 312.8078,209.2472 306.9328,206.3172 M325.4708,251.0042 C325.1758,251.0042 324.8808,250.9662 324.6008,250.8912 C304.6558,245.5462 304.9128,233.9562 304.9338,233.4652 L304.9328,204.6212 C304.9328,204.2582 305.1278,203.9252 305.4438,203.7492 C305.7598,203.5702 306.1468,203.5782 306.4548,203.7682 C312.1588,207.2602 319.2448,207.2602 324.9488,203.7682 C325.2688,203.5712 325.6728,203.5712 325.9928,203.7682 C331.6968,207.2602 338.7828,207.2592 344.4868,203.7682 C344.7958,203.5792 345.1828,203.5712 345.4978,203.7492 C345.8138,203.9252 346.0088,204.2582 346.0088,204.6212 L346.0088,233.5072 C346.0288,233.9562 346.2868,245.5462 326.3408,250.8912 C326.0598,250.9662 325.7658,251.0042 325.4708,251.0042" id="Fill-108" fill="#FFFFFF"></path>
            <mask id="mask-4" fill="white">
                <use xlink:href="#path-3"></use>
            </mask>
            <g id="Clip-111"></g>
            <path d="M306.871,365.897 L344.07,365.897 L344.07,333.313 L306.871,333.313 L306.871,365.897 Z M345.07,367.897 L305.871,367.897 C305.319,367.897 304.871,367.45 304.871,366.897 L304.871,332.313 C304.871,331.761 305.319,331.313 305.871,331.313 L345.07,331.313 C345.623,331.313 346.07,331.761 346.07,332.313 L346.07,366.897 C346.07,367.45 345.623,367.897 345.07,367.897 L345.07,367.897 Z" id="Fill-110" fill="#FFFFFF" mask="url(#mask-4)"></path>
            <path d="M321.361,359.7362 L321.357,359.7362 C320.96,359.7342 320.602,359.4982 320.444,359.1342 L316.74,350.6052 L305.871,350.6052 C305.319,350.6052 304.871,350.1582 304.871,349.6052 C304.871,349.0522 305.319,348.6052 305.871,348.6052 L317.397,348.6052 C317.795,348.6052 318.155,348.8412 318.314,349.2072 L321.372,356.2502 L328.561,340.0682 C328.722,339.7072 329.08,339.4742 329.475,339.4742 L329.482,339.4742 C329.879,339.4772 330.237,339.7152 330.394,340.0802 L334.056,348.6052 L345.07,348.6052 C345.623,348.6052 346.07,349.0522 346.07,349.6052 C346.07,350.1582 345.623,350.6052 345.07,350.6052 L333.397,350.6052 C332.997,350.6052 332.636,350.3672 332.478,350.0002 L329.46,342.9722 L322.275,359.1422 C322.114,359.5042 321.756,359.7362 321.361,359.7362" id="Fill-112" fill="#FFFFFF" mask="url(#mask-4)"></path>
            <path d="M206.3146,374.2088 C205.7626,374.2088 205.3146,373.7618 205.3146,373.2088 L205.3146,326.0018 C205.3146,325.4488 205.7626,325.0018 206.3146,325.0018 C206.8666,325.0018 207.3146,325.4488 207.3146,326.0018 L207.3146,373.2088 C207.3146,373.7618 206.8666,374.2088 206.3146,374.2088" id="Fill-113" fill="#FFFFFF" mask="url(#mask-4)"></path>
            <polygon id="Fill-114" fill="#0B1A42" mask="url(#mask-4)" points="222.9835 332.8641 189.6455 332.8641 189.6455 341.6481 222.9835 341.6481 227.0335 337.2561"></polygon>
            <path d="M190.6456,340.6483 L222.5456,340.6483 L225.6736,337.2553 L222.5456,333.8643 L190.6456,333.8643 L190.6456,340.6483 Z M222.9836,342.6483 L189.6456,342.6483 C189.0936,342.6483 188.6456,342.2013 188.6456,341.6483 L188.6456,332.8643 C188.6456,332.3113 189.0936,331.8643 189.6456,331.8643 L222.9836,331.8643 C223.2626,331.8643 223.5296,331.9813 223.7186,332.1863 L227.7686,336.5783 C228.1226,336.9603 228.1226,337.5503 227.7696,337.9333 L223.7186,342.3263 C223.5296,342.5313 223.2626,342.6483 222.9836,342.6483 L222.9836,342.6483 Z" id="Fill-115" fill="#FFFFFF" mask="url(#mask-4)"></path>
            <polygon id="Fill-116" fill="#0B1A42" mask="url(#mask-4)" points="189.6456 349.6053 222.9836 349.6053 222.9836 358.3893 189.6456 358.3893 185.5946 353.9973"></polygon>
            <path d="M190.0836,357.3895 L221.9836,357.3895 L221.9836,350.6055 L190.0836,350.6055 L186.9556,353.9965 L190.0836,357.3895 Z M222.9836,359.3895 L189.6456,359.3895 C189.3666,359.3895 189.0996,359.2725 188.9106,359.0675 L184.8596,354.6745 C184.5066,354.2915 184.5066,353.7015 184.8596,353.3195 L188.9106,348.9275 C189.0996,348.7225 189.3666,348.6055 189.6456,348.6055 L222.9836,348.6055 C223.5356,348.6055 223.9836,349.0525 223.9836,349.6055 L223.9836,358.3895 C223.9836,358.9425 223.5356,359.3895 222.9836,359.3895 L222.9836,359.3895 Z" id="Fill-117" fill="#FFFFFF" mask="url(#mask-4)"></path>
            <path d="M315.9162,61.953 C315.3332,61.953 314.7792,61.611 314.5362,61.042 C314.2112,60.279 314.5652,59.398 315.3272,59.073 L388.6002,27.815 C389.3602,27.489 390.2432,27.845 390.5682,28.606 C390.8932,29.369 390.5392,30.25 389.7762,30.575 L316.5042,61.833 C316.3122,61.915 316.1122,61.953 315.9162,61.953" id="Fill-118" fill="#0B1A42" mask="url(#mask-4)"></path>
            <path d="M432.6554,10.6532 C432.3354,9.8922 432.6854,9.0122 433.4554,8.6822 C434.2154,8.3522 435.0954,8.7132 435.4154,9.4722 C435.7454,10.2332 435.3854,11.1132 434.6254,11.4432 C434.4354,11.5222 434.2354,11.5622 434.0354,11.5622 C433.4554,11.5622 432.9054,11.2222 432.6554,10.6532 M425.2954,13.7932 C424.9754,13.0222 425.3354,12.1422 426.0954,11.8232 C426.8554,11.4932 427.7354,11.8522 428.0554,12.6132 C428.3854,13.3732 428.0254,14.2532 427.2654,14.5832 C427.0754,14.6632 426.8754,14.7032 426.6854,14.7032 C426.0954,14.7032 425.5454,14.3632 425.2954,13.7932 M417.9454,16.9322 C417.6154,16.1632 417.9754,15.2832 418.7354,14.9632 C419.4954,14.6322 420.3754,14.9932 420.7054,15.7532 C421.0254,16.5122 420.6754,17.3922 419.9154,17.7222 C419.7154,17.8022 419.5154,17.8422 419.3254,17.8422 C418.7354,17.8422 418.1854,17.4932 417.9454,16.9322 M410.5854,20.0622 C410.2554,19.3022 410.6154,18.4232 411.3754,18.1022 C412.1354,17.7722 413.0154,18.1322 413.3454,18.8922 C413.6654,19.6532 413.3154,20.5332 412.5554,20.8522 C412.3554,20.9432 412.1654,20.9722 411.9654,20.9722 C411.3854,20.9722 410.8254,20.6322 410.5854,20.0622 M403.2254,23.2032 C402.8954,22.4432 403.2554,21.5622 404.0154,21.2332 C404.7754,20.9132 405.6554,21.2622 405.9854,22.0332 C406.3054,22.7932 405.9554,23.6732 405.1954,23.9932 C405.0054,24.0832 404.8054,24.1132 404.6054,24.1132 C404.0254,24.1132 403.4654,23.7722 403.2254,23.2032 M395.8654,26.3422 C395.5454,25.5832 395.8954,24.7032 396.6554,24.3732 C397.4154,24.0522 398.3054,24.4032 398.6254,25.1632 C398.9554,25.9322 398.5954,26.8122 397.8354,27.1322 C397.6454,27.2132 397.4454,27.2532 397.2454,27.2532 C396.6654,27.2532 396.1054,26.9132 395.8654,26.3422 M388.5054,29.4832 C388.1854,28.7222 388.5354,27.8422 389.2954,27.5122 C390.0654,27.1932 390.9454,27.5432 391.2654,28.3022 C391.5954,29.0732 391.2354,29.9532 390.4754,30.2722 C390.2854,30.3522 390.0854,30.3922 389.8854,30.3922 C389.3054,30.3922 388.7554,30.0522 388.5054,29.4832" id="Fill-119" fill="#0B1A42" mask="url(#mask-4)"></path>
            <path d="M315.9176,61.953 C315.8336,61.953 315.7476,61.946 315.6616,61.932 L179.0616,38.488 C178.2446,38.348 177.6966,37.572 177.8366,36.756 C177.9766,35.939 178.7556,35.395 179.5686,35.531 L316.1696,58.974 C316.9856,59.115 317.5346,59.89 317.3946,60.707 C317.2686,61.437 316.6346,61.953 315.9176,61.953" id="Fill-120" fill="#0B1A42" mask="url(#mask-4)"></path>
            <path d="M130.9855,30.2127 C130.7855,30.2127 130.5855,30.1727 130.4055,30.1027 C130.2255,30.0227 130.0555,29.9127 129.9155,29.7727 C129.7755,29.6327 129.6655,29.4727 129.5955,29.2927 C129.5155,29.1027 129.4855,28.9127 129.4855,28.7127 C129.4855,28.6127 129.4955,28.5227 129.5055,28.4227 C129.5255,28.3227 129.5555,28.2337 129.5955,28.1427 C129.6355,28.0527 129.6755,27.9627 129.7355,27.8827 C129.7855,27.8027 129.8455,27.7227 129.9155,27.6527 C130.2655,27.3027 130.7855,27.1527 131.2755,27.2427 C131.3655,27.2627 131.4655,27.2927 131.5555,27.3327 C131.6455,27.3627 131.7355,27.4127 131.8155,27.4627 C131.8955,27.5227 131.9755,27.5827 132.0355,27.6527 C132.1055,27.7227 132.1755,27.8027 132.2255,27.8827 C132.2855,27.9627 132.3255,28.0527 132.3655,28.1427 C132.4055,28.2337 132.4355,28.3227 132.4555,28.4227 C132.4755,28.5227 132.4855,28.6127 132.4855,28.7127 C132.4855,29.1127 132.3255,29.4927 132.0355,29.7727 C131.7555,30.0527 131.3755,30.2127 130.9855,30.2127" id="Fill-121" fill="#0B1A42" mask="url(#mask-4)"></path>
            <path d="M138.7858,31.5731 C137.9658,31.4321 137.4158,30.6631 137.5558,29.8431 C137.6958,29.0221 138.4758,28.4721 139.2858,28.6231 C140.1058,28.7621 140.6558,29.5331 140.5158,30.3521 C140.3858,31.0831 139.7558,31.5931 139.0358,31.5931 C138.9558,31.5931 138.8658,31.5931 138.7858,31.5731 M146.8358,32.9531 C146.0158,32.8121 145.4758,32.0431 145.6158,31.2221 C145.7558,30.4031 146.5258,29.8631 147.3458,30.0031 C148.1658,30.1421 148.7058,30.9131 148.5658,31.7331 C148.4458,32.4631 147.8158,32.9721 147.0958,32.9721 C147.0058,32.9721 146.9258,32.9721 146.8358,32.9531 M154.8958,34.3431 C154.0758,34.2031 153.5258,33.4231 153.6658,32.6131 C153.8058,31.7931 154.5858,31.2431 155.3958,31.3831 C156.2158,31.5221 156.7658,32.3021 156.6258,33.1131 C156.5058,33.8431 155.8658,34.3631 155.1458,34.3631 C155.0658,34.3631 154.9758,34.3521 154.8958,34.3431 M162.9458,35.7221 C162.1358,35.5831 161.5858,34.8021 161.7258,33.9931 C161.8658,33.1731 162.6358,32.6231 163.4558,32.7621 C164.2758,32.9031 164.8258,33.6821 164.6758,34.4931 C164.5558,35.2221 163.9258,35.7431 163.2058,35.7431 C163.1258,35.7431 163.0358,35.7331 162.9458,35.7221 M171.0058,37.1021 C170.1858,36.9631 169.6358,36.1931 169.7858,35.3731 C169.9258,34.5521 170.6958,34.0031 171.5158,34.1421 C172.3258,34.2931 172.8758,35.0621 172.7358,35.8831 C172.6158,36.6131 171.9758,37.1231 171.2658,37.1231 C171.1758,37.1231 171.0958,37.1231 171.0058,37.1021" id="Fill-122" fill="#0B1A42" mask="url(#mask-4)"></path>
            <path d="M179.3156,38.5125 C179.1156,38.5125 178.9256,38.4725 178.7456,38.3925 C178.5556,38.3235 178.3956,38.2125 178.2556,38.0735 C177.9756,37.7835 177.8156,37.4125 177.8156,37.0125 C177.8156,36.6135 177.9756,36.2225 178.2556,35.9525 C178.5956,35.6025 179.1156,35.4435 179.6056,35.5425 C179.7056,35.5525 179.7956,35.5825 179.8856,35.6225 C179.9756,35.6625 180.0656,35.7125 180.1456,35.7625 C180.2256,35.8125 180.3056,35.8825 180.3756,35.9525 C180.6556,36.2225 180.8156,36.6135 180.8156,37.0125 C180.8156,37.4125 180.6556,37.7835 180.3756,38.0735 C180.0956,38.3525 179.7156,38.5125 179.3156,38.5125" id="Fill-123" fill="#0B1A42" mask="url(#mask-4)"></path>
            <path d="M215.4904,517.9657 C215.3164,517.9657 215.1384,517.9357 214.9664,517.8707 L45.9454,454.8127 C45.1694,454.5237 44.7754,453.6587 45.0644,452.8827 C45.3544,452.1067 46.2184,451.7127 46.9944,452.0017 L216.0144,515.0607 C216.7904,515.3497 217.1854,516.2137 216.8954,516.9897 C216.6704,517.5937 216.0984,517.9657 215.4904,517.9657" id="Fill-124" fill="#0B1A42" mask="url(#mask-4)"></path>
            <path d="M305.9333,536.4002 C305.8343,536.4002 305.7333,536.3902 305.6323,536.3702 L215.1903,517.9352 C214.3793,517.7702 213.8553,516.9772 214.0203,516.1662 C214.1863,515.3552 214.9733,514.8332 215.7903,514.9962 L306.2313,533.4302 C307.0433,533.5952 307.5673,534.3882 307.4013,535.2002 C307.2563,535.9102 306.6313,536.4002 305.9333,536.4002" id="Fill-125" fill="#0B1A42" mask="url(#mask-4)"></path>
            <path d="M160.6168,540.8651 C160.0298,540.8651 159.4718,540.5181 159.2318,539.9431 C158.9128,539.1781 159.2738,538.3001 160.0388,537.9801 L214.9128,515.0811 C215.6758,514.7651 216.5558,515.1231 216.8748,515.8871 C217.1938,516.6521 216.8328,517.5311 216.0678,517.8501 L161.1938,540.7501 C161.0058,540.8281 160.8098,540.8651 160.6168,540.8651" id="Fill-126" fill="#0B1A42" mask="url(#mask-4)"></path>
            <path d="M157.6857,540.5828 C157.3657,539.8228 157.7257,538.9428 158.4957,538.6228 C159.2557,538.3028 160.1357,538.6628 160.4557,539.4328 C160.7757,540.1928 160.4057,541.0728 159.6457,541.3928 C159.4557,541.4728 159.2657,541.5128 159.0657,541.5128 C158.4857,541.5128 157.9257,541.1628 157.6857,540.5828 M150.3057,543.6628 C149.9857,542.9028 150.3457,542.0218 151.1057,541.7028 C151.8757,541.3828 152.7557,541.7428 153.0757,542.5128 C153.3857,543.2828 153.0257,544.1528 152.2657,544.4728 C152.0757,544.5528 151.8757,544.5928 151.6857,544.5928 C151.0957,544.5928 150.5457,544.2428 150.3057,543.6628 M142.9157,546.7528 C142.5957,545.9828 142.9657,545.1028 143.7257,544.7828 C144.4857,544.4628 145.3657,544.8328 145.6857,545.5928 C146.0057,546.3528 145.6457,547.2328 144.8757,547.5528 C144.6957,547.6328 144.4957,547.6728 144.3057,547.6728 C143.7157,547.6728 143.1657,547.3228 142.9157,546.7528 M135.5357,549.8328 C135.2157,549.0618 135.5757,548.1828 136.3457,547.8728 C137.1057,547.5528 137.9857,547.9128 138.3057,548.6728 C138.6257,549.4428 138.2657,550.3118 137.4957,550.6328 C137.3057,550.7128 137.1157,550.7528 136.9257,550.7528 C136.3357,550.7528 135.7757,550.4028 135.5357,549.8328 M128.1557,552.9128 C127.8357,552.1428 128.1957,551.2718 128.9557,550.9528 C129.7257,550.6328 130.6057,550.9928 130.9257,551.7528 C131.2457,552.5218 130.8857,553.3928 130.1157,553.7228 C129.9257,553.7928 129.7357,553.8328 129.5357,553.8328 C128.9557,553.8328 128.3957,553.4828 128.1557,552.9128 M120.7757,555.9928 C120.4557,555.2228 120.8157,554.3528 121.5757,554.0328 C122.3457,553.7128 123.2157,554.0728 123.5357,554.8328 C123.8557,555.6028 123.4957,556.4828 122.7357,556.8028 C122.5457,556.8828 122.3457,556.9128 122.1557,556.9128 C121.5657,556.9128 121.0157,556.5618 120.7757,555.9928 M113.3857,559.0728 C113.0657,558.3118 113.4257,557.4328 114.1957,557.1128 C114.9557,556.7928 115.8357,557.1528 116.1557,557.9228 C116.4757,558.6828 116.1157,559.5618 115.3557,559.8828 C115.1657,559.9628 114.9657,559.9928 114.7757,559.9928 C114.1857,559.9928 113.6257,559.6528 113.3857,559.0728" id="Fill-127" fill="#0B1A42" mask="url(#mask-4)"></path>
            <path d="M665.3761,307.866 C665.0831,307.866 664.7861,307.78 664.5261,307.6 L631.7001,284.957 C631.0181,284.487 630.8461,283.553 631.3161,282.871 C631.7871,282.19 632.7221,282.017 633.4031,282.488 L666.2291,305.132 C666.9111,305.601 667.0831,306.536 666.6121,307.218 C666.3211,307.639 665.8531,307.866 665.3761,307.866" id="Fill-128" fill="#0B1A42" mask="url(#mask-4)"></path>
            <path d="M666.2355,308.7723 C665.5455,308.3023 665.3755,307.3733 665.8455,306.6933 C666.3155,306.0123 667.2455,305.8333 667.9355,306.3023 C668.6155,306.7723 668.7855,307.7123 668.3155,308.3923 C668.0255,308.8123 667.5555,309.0433 667.0855,309.0433 C666.7855,309.0433 666.4955,308.9533 666.2355,308.7723 M672.8155,313.3123 C672.1355,312.8523 671.9655,311.9133 672.4355,311.2333 C672.9055,310.5523 673.8355,310.3733 674.5155,310.8423 C675.1955,311.3233 675.3755,312.2523 674.9055,312.9323 C674.6155,313.3523 674.1455,313.5833 673.6655,313.5833 C673.3755,313.5833 673.0755,313.4933 672.8155,313.3123 M679.3955,317.8633 C678.7155,317.3923 678.5455,316.4533 679.0155,315.7723 C679.4855,315.0923 680.4255,314.9223 681.1055,315.3923 C681.7855,315.8633 681.9555,316.7933 681.4855,317.4723 C681.1955,317.9033 680.7255,318.1233 680.2555,318.1233 C679.9555,318.1233 679.6555,318.0433 679.3955,317.8633 M685.9855,322.4033 C685.3055,321.9323 685.1355,320.9933 685.6055,320.3123 C686.0755,319.6323 687.0055,319.4623 687.6855,319.9323 C688.3655,320.4033 688.5455,321.3333 688.0755,322.0223 C687.7855,322.4433 687.3155,322.6723 686.8355,322.6723 C686.5455,322.6723 686.2455,322.5833 685.9855,322.4033 M692.5655,326.9433 C691.8955,326.4723 691.7155,325.5433 692.1855,324.8523 C692.6555,324.1723 693.5955,324.0023 694.2755,324.4723 C694.9555,324.9433 695.1255,325.8823 694.6555,326.5623 C694.3655,326.9833 693.8955,327.2123 693.4155,327.2123 C693.1255,327.2123 692.8255,327.1233 692.5655,326.9433 M699.1555,331.4833 C698.4755,331.0123 698.3055,330.0833 698.7755,329.4033 C699.2455,328.7223 700.1755,328.5433 700.8555,329.0223 C701.5455,329.4933 701.7155,330.4223 701.2455,331.1023 C700.9555,331.5223 700.4855,331.7523 700.0055,331.7523 C699.7155,331.7523 699.4155,331.6723 699.1555,331.4833" id="Fill-129" fill="#0B1A42" mask="url(#mask-4)"></path>
            <line x1="676.089" y1="145.1219" x2="718.51" y2="123.8549" id="Fill-130" fill="#1F4EC2" mask="url(#mask-4)"></line>
            <path d="M676.09,146.6219 C675.541,146.6219 675.011,146.3189 674.748,145.7939 C674.377,145.0539 674.676,144.1519 675.417,143.7809 L717.838,122.5149 C718.579,122.1429 719.479,122.4419 719.851,123.1839 C720.222,123.9239 719.923,124.8249 719.182,125.1959 L676.761,146.4629 C676.546,146.5709 676.316,146.6219 676.09,146.6219" id="Fill-131" fill="#0B1A42" mask="url(#mask-4)"></path>
            <path d="M760.2555,102.9227 C759.8855,102.1827 760.1855,101.2827 760.9255,100.9127 C761.6655,100.5427 762.5655,100.8427 762.9455,101.5827 C763.3155,102.3227 763.0155,103.2227 762.2755,103.5927 C762.0555,103.7027 761.8255,103.7527 761.6055,103.7527 C761.0555,103.7527 760.5255,103.4527 760.2555,102.9227 M753.1055,106.5127 C752.7355,105.7727 753.0355,104.8727 753.7755,104.4927 C754.5155,104.1227 755.4155,104.4227 755.7855,105.1627 C756.1555,105.9027 755.8655,106.8027 755.1155,107.1827 C754.9055,107.2827 754.6755,107.3327 754.4455,107.3327 C753.8955,107.3327 753.3655,107.0327 753.1055,106.5127 M745.9555,110.0927 C745.5855,109.3527 745.8855,108.4527 746.6255,108.0827 C747.3655,107.7127 748.2655,108.0127 748.6355,108.7527 C749.0055,109.4927 748.7155,110.3927 747.9655,110.7627 C747.7555,110.8727 747.5255,110.9227 747.2955,110.9227 C746.7455,110.9227 746.2155,110.6227 745.9555,110.0927 M738.8055,113.6827 C738.4355,112.9437 738.7355,112.0427 739.4755,111.6627 C740.2155,111.2927 741.1155,111.5927 741.4855,112.3327 C741.8555,113.0727 741.5555,113.9727 740.8155,114.3527 C740.6055,114.4527 740.3755,114.5127 740.1455,114.5127 C739.5955,114.5127 739.0655,114.2027 738.8055,113.6827 M731.6555,117.2627 C731.2855,116.5227 731.5855,115.6227 732.3255,115.2527 C733.0655,114.8827 733.9655,115.1827 734.3355,115.9227 C734.7055,116.6627 734.4055,117.5627 733.6655,117.9327 C733.4555,118.0427 733.2255,118.0927 732.9955,118.0927 C732.4455,118.0927 731.9155,117.7927 731.6555,117.2627 M724.5055,120.8527 C724.1255,120.1127 724.4255,119.2127 725.1655,118.8427 C725.9055,118.4627 726.8055,118.7627 727.1855,119.5027 C727.5555,120.2427 727.2555,121.1427 726.5155,121.5227 C726.2955,121.6227 726.0655,121.6827 725.8455,121.6827 C725.2955,121.6827 724.7655,121.3727 724.5055,120.8527 M717.3455,124.4327 C716.9755,123.6937 717.2755,122.7927 718.0155,122.4227 C718.7555,122.0527 719.6555,122.3527 720.0355,123.0927 C720.4055,123.8327 720.1055,124.7337 719.3655,125.1027 C719.1455,125.2127 718.9155,125.2627 718.6955,125.2627 C718.1455,125.2627 717.6155,124.9627 717.3455,124.4327" id="Fill-132" fill="#0B1A42" mask="url(#mask-4)"></path>
            <path d="M643.2623,283.7225 C643.2623,277.8065 638.4673,273.0115 632.5513,273.0115 C626.6363,273.0115 621.8403,277.8065 621.8403,283.7225 C621.8403,289.6375 626.6363,294.4335 632.5513,294.4335 C638.4673,294.4335 643.2623,289.6375 643.2623,283.7225" id="Fill-133" fill="#FFFFFF" mask="url(#mask-4)"></path>
            <path d="M632.5514,274.0116 C627.1974,274.0116 622.8404,278.3676 622.8404,283.7226 C622.8404,289.0766 627.1974,293.4336 632.5514,293.4336 C637.9054,293.4336 642.2624,289.0766 642.2624,283.7226 C642.2624,278.3676 637.9054,274.0116 632.5514,274.0116 M632.5514,295.4336 C626.0934,295.4336 620.8404,290.1796 620.8404,283.7226 C620.8404,277.2656 626.0934,272.0116 632.5514,272.0116 C639.0094,272.0116 644.2624,277.2656 644.2624,283.7226 C644.2624,290.1796 639.0094,295.4336 632.5514,295.4336" id="Fill-134" fill="#1F4EC2" mask="url(#mask-4)"></path>
            <path d="M226.2013,516.4657 C226.2013,510.5497 221.4063,505.7547 215.4903,505.7547 C209.5753,505.7547 204.7793,510.5497 204.7793,516.4657 C204.7793,522.3807 209.5753,527.1767 215.4903,527.1767 C221.4063,527.1767 226.2013,522.3807 226.2013,516.4657" id="Fill-135" fill="#FFFFFF" mask="url(#mask-4)"></path>
            <path d="M215.4904,506.7547 C210.1364,506.7547 205.7794,511.1107 205.7794,516.4657 C205.7794,521.8197 210.1364,526.1767 215.4904,526.1767 C220.8444,526.1767 225.2014,521.8197 225.2014,516.4657 C225.2014,511.1107 220.8444,506.7547 215.4904,506.7547 M215.4904,528.1767 C209.0324,528.1767 203.7794,522.9227 203.7794,516.4657 C203.7794,510.0087 209.0324,504.7547 215.4904,504.7547 C221.9484,504.7547 227.2014,510.0087 227.2014,516.4657 C227.2014,522.9227 221.9484,528.1767 215.4904,528.1767" id="Fill-136" fill="#1F4EC2" mask="url(#mask-4)"></path>
            <path d="M686.7999,145.1219 C686.7999,139.2069 682.0049,134.4109 676.0889,134.4109 C670.1739,134.4109 665.3779,139.2069 665.3779,145.1219 C665.3779,151.0379 670.1739,155.8329 676.0889,155.8329 C682.0049,155.8329 686.7999,151.0379 686.7999,145.1219" id="Fill-137" fill="#FFFFFF" mask="url(#mask-4)"></path>
            <path d="M676.089,135.411 C670.734,135.411 666.378,139.767 666.378,145.122 C666.378,150.476 670.734,154.833 676.089,154.833 C681.443,154.833 685.8,150.476 685.8,145.122 C685.8,139.767 681.443,135.411 676.089,135.411 M676.089,156.833 C669.631,156.833 664.378,151.579 664.378,145.122 C664.378,138.665 669.631,133.411 676.089,133.411 C682.547,133.411 687.8,138.665 687.8,145.122 C687.8,151.579 682.547,156.833 676.089,156.833" id="Fill-138" fill="#1F4EC2" mask="url(#mask-4)"></path>
            <path d="M326.6266,60.453 C326.6266,54.538 321.8316,49.742 315.9156,49.742 C310.0006,49.742 305.2046,54.538 305.2046,60.453 C305.2046,66.368 310.0006,71.164 315.9156,71.164 C321.8316,71.164 326.6266,66.368 326.6266,60.453" id="Fill-139" fill="#FFFFFF" mask="url(#mask-4)"></path>
            <path d="M315.9157,50.742 C310.5617,50.742 306.2047,55.098 306.2047,60.453 C306.2047,65.807 310.5617,70.164 315.9157,70.164 C321.2697,70.164 325.6267,65.807 325.6267,60.453 C325.6267,55.098 321.2697,50.742 315.9157,50.742 M315.9157,72.164 C309.4577,72.164 304.2047,66.91 304.2047,60.453 C304.2047,53.996 309.4577,48.742 315.9157,48.742 C322.3737,48.742 327.6267,53.996 327.6267,60.453 C327.6267,66.91 322.3737,72.164 315.9157,72.164" id="Fill-140" fill="#1F4EC2" mask="url(#mask-4)"></path>
            <path d="M100.0763,126.3553 C95.8633,126.3553 92.4363,129.7823 92.4363,133.9953 L92.4363,420.9113 C92.4363,425.1243 95.8633,428.5513 100.0763,428.5513 L531.7553,428.5513 C535.9683,428.5513 539.3953,425.1243 539.3953,420.9113 L539.3953,133.9953 C539.3953,129.7823 535.9683,126.3553 531.7553,126.3553 L100.0763,126.3553 Z M531.7553,433.5513 L100.0763,433.5513 C93.1063,433.5513 87.4363,427.8803 87.4363,420.9113 L87.4363,133.9953 C87.4363,127.0253 93.1063,121.3553 100.0763,121.3553 L531.7553,121.3553 C538.7243,121.3553 544.3953,127.0253 544.3953,133.9953 L544.3953,420.9113 C544.3953,427.8803 538.7243,433.5513 531.7553,433.5513 L531.7553,433.5513 Z" id="Fill-141" fill="#FFFFFF" mask="url(#mask-4)"></path>
            <path d="M0.9757,438.033 C0.1957,437.743 -0.1943,436.883 0.0957,436.102 C0.3857,435.323 1.2457,434.932 2.0257,435.222 C2.7957,435.512 3.1957,436.373 2.9057,437.153 C2.6757,437.753 2.1057,438.123 1.4957,438.123 C1.3257,438.123 1.1457,438.093 0.9757,438.033 M8.4657,440.833 C7.6957,440.543 7.2957,439.673 7.5857,438.903 C7.8757,438.123 8.7357,437.733 9.5157,438.012 C10.2957,438.312 10.6857,439.173 10.3957,439.943 C10.1757,440.553 9.5957,440.923 8.9957,440.923 C8.8157,440.923 8.6457,440.892 8.4657,440.833 M15.9657,443.623 C15.1857,443.333 14.7957,442.472 15.0857,441.693 C15.3757,440.923 16.2357,440.522 17.0157,440.812 C17.7857,441.102 18.1857,441.972 17.8957,442.743 C17.6657,443.352 17.0957,443.722 16.4857,443.722 C16.3157,443.722 16.1357,443.693 15.9657,443.623 M23.4557,446.423 C22.6857,446.133 22.2857,445.272 22.5757,444.493 C22.8657,443.713 23.7357,443.323 24.5057,443.613 C25.2857,443.903 25.6757,444.762 25.3857,445.543 C25.1657,446.142 24.5957,446.512 23.9857,446.512 C23.8057,446.512 23.6357,446.483 23.4557,446.423 M30.9557,449.222 C30.1757,448.932 29.7857,448.062 30.0757,447.293 C30.3657,446.512 31.2257,446.123 32.0057,446.403 C32.7757,446.703 33.1757,447.562 32.8857,448.333 C32.6557,448.943 32.0857,449.312 31.4757,449.312 C31.3057,449.312 31.1257,449.283 30.9557,449.222 M38.4457,452.012 C37.6757,451.722 37.2757,450.863 37.5657,450.083 C37.8557,449.303 38.7257,448.913 39.4957,449.203 C40.2757,449.493 40.6657,450.352 40.3757,451.133 C40.1557,451.733 39.5857,452.113 38.9757,452.113 C38.8057,452.113 38.6257,452.083 38.4457,452.012 M45.9457,454.812 C45.1657,454.522 44.7757,453.663 45.0657,452.883 C45.3557,452.102 46.2157,451.713 46.9957,452.003 C47.7657,452.293 48.1657,453.153 47.8757,453.932 C47.6457,454.533 47.0757,454.903 46.4757,454.903 C46.2957,454.903 46.1157,454.873 45.9457,454.812" id="Fill-142" fill="#0B1A42" mask="url(#mask-4)"></path>
            <path d="M305.6354,536.3729 C304.8254,536.2029 304.2954,535.4129 304.4654,534.6019 C304.6254,533.7929 305.4254,533.2629 306.2354,533.4329 C307.0454,533.5929 307.5654,534.3929 307.4054,535.2029 C307.2554,535.9129 306.6254,536.4029 305.9354,536.4029 C305.8354,536.4029 305.7354,536.3929 305.6354,536.3729 M313.4654,537.9729 C312.6554,537.8029 312.1354,537.0129 312.3054,536.1929 C312.4654,535.3829 313.2554,534.8629 314.0654,535.0219 C314.8854,535.1929 315.4054,535.9829 315.2454,536.7929 C315.0954,537.5129 314.4654,538.0029 313.7654,538.0029 C313.6654,538.0029 313.5654,537.9929 313.4654,537.9729 M321.3054,539.5619 C320.4954,539.4029 319.9754,538.6019 320.1354,537.7929 C320.3054,536.9829 321.0954,536.4629 321.9054,536.6229 C322.7254,536.7929 323.2454,537.5829 323.0754,538.3929 C322.9354,539.1019 322.3054,539.5929 321.6054,539.5929 C321.5054,539.5929 321.4054,539.5829 321.3054,539.5619 M329.1454,541.1629 C328.3354,541.0029 327.8154,540.2029 327.9754,539.3929 C328.1454,538.5829 328.9354,538.0529 329.7454,538.2229 C330.5554,538.3929 331.0854,539.1829 330.9154,539.9929 C330.7754,540.7029 330.1454,541.1929 329.4454,541.1929 C329.3454,541.1929 329.2454,541.1829 329.1454,541.1629 M336.9854,542.7629 C336.1754,542.5929 335.6554,541.8029 335.8154,540.9929 C335.9854,540.1829 336.7754,539.6529 337.5854,539.8229 C338.3954,539.9829 338.9254,540.7829 338.7554,541.5929 C338.6154,542.3029 337.9854,542.7929 337.2854,542.7929 C337.1854,542.7929 337.0854,542.7829 336.9854,542.7629 M344.8254,544.3629 C344.0154,544.1929 343.4954,543.4029 343.6554,542.5929 C343.8254,541.7719 344.6154,541.2529 345.4254,541.4229 C346.2354,541.5829 346.7654,542.3729 346.5954,543.1829 C346.4454,543.9029 345.8254,544.3929 345.1254,544.3929 C345.0254,544.3929 344.9254,544.3829 344.8254,544.3629 M352.6654,545.9529 C351.8554,545.7929 351.3254,544.9929 351.4954,544.1829 C351.6654,543.3729 352.4554,542.8519 353.2654,543.0129 C354.0754,543.1829 354.5954,543.9729 354.4354,544.7829 C354.2854,545.4929 353.6654,545.9829 352.9654,545.9829 C352.8654,545.9829 352.7654,545.9729 352.6654,545.9529" id="Fill-143" fill="#0B1A42" mask="url(#mask-4)"></path>
        </g>
    </g>
</svg>